<svg width="240" height="45" viewBox="0 0 240 45" fill="none" xmlns="http://www.w3.org/2000/svg">
<rect width="240" height="45" rx="10" fill="#60D669"/>
<path d="M28.1641 22.9609V24.7109H23.8672V22.9609H28.1641ZM24.6172 19.5469V28H22.3672V19.5469H24.6172ZM29.6875 19.5469V28H27.4297V19.5469H29.6875ZM36 26.0938V22.3281C36 22.0573 35.9557 21.8255 35.8672 21.6328C35.7786 21.4349 35.6406 21.2812 35.4531 21.1719C35.2708 21.0625 35.0339 21.0078 34.7422 21.0078C34.4922 21.0078 34.276 21.0521 34.0938 21.1406C33.9115 21.224 33.7708 21.3464 33.6719 21.5078C33.5729 21.6641 33.5234 21.849 33.5234 22.0625H31.2734C31.2734 21.7031 31.3568 21.362 31.5234 21.0391C31.6901 20.7161 31.9323 20.4323 32.25 20.1875C32.5677 19.9375 32.9453 19.7422 33.3828 19.6016C33.8255 19.4609 34.3203 19.3906 34.8672 19.3906C35.5234 19.3906 36.1068 19.5 36.6172 19.7188C37.1276 19.9375 37.5286 20.2656 37.8203 20.7031C38.1172 21.1406 38.2656 21.6875 38.2656 22.3438V25.9609C38.2656 26.4245 38.2943 26.8047 38.3516 27.1016C38.4089 27.3932 38.4922 27.6484 38.6016 27.8672V28H36.3281C36.2188 27.7708 36.1354 27.4844 36.0781 27.1406C36.026 26.7917 36 26.4427 36 26.0938ZM36.2969 22.8516L36.3125 24.125H35.0547C34.7578 24.125 34.5 24.1589 34.2812 24.2266C34.0625 24.2943 33.8828 24.3906 33.7422 24.5156C33.6016 24.6354 33.4974 24.776 33.4297 24.9375C33.3672 25.099 33.3359 25.276 33.3359 25.4688C33.3359 25.6615 33.3802 25.8359 33.4688 25.9922C33.5573 26.1432 33.6849 26.263 33.8516 26.3516C34.0182 26.4349 34.2135 26.4766 34.4375 26.4766C34.776 26.4766 35.0703 26.4089 35.3203 26.2734C35.5703 26.138 35.763 25.9714 35.8984 25.7734C36.0391 25.5755 36.112 25.388 36.1172 25.2109L36.7109 26.1641C36.6276 26.3776 36.513 26.599 36.3672 26.8281C36.2266 27.0573 36.0469 27.2734 35.8281 27.4766C35.6094 27.6745 35.3464 27.8385 35.0391 27.9688C34.7318 28.0938 34.3672 28.1562 33.9453 28.1562C33.4089 28.1562 32.9219 28.0495 32.4844 27.8359C32.0521 27.6172 31.7083 27.3177 31.4531 26.9375C31.2031 26.5521 31.0781 26.1146 31.0781 25.625C31.0781 25.1823 31.1615 24.7891 31.3281 24.4453C31.4948 24.1016 31.7396 23.8125 32.0625 23.5781C32.3906 23.3385 32.7995 23.1589 33.2891 23.0391C33.7786 22.9141 34.3464 22.8516 34.9922 22.8516H36.2969ZM45.6875 19.5469V21.3125H41.5938V19.5469H45.6875ZM42.2422 19.5469V28H39.9922V19.5469H42.2422ZM47.3281 19.5469V28H45.0703V19.5469H47.3281ZM51.3047 24.8594L54.1406 19.5469H56.3906V28H54.1406V22.6797L51.3047 28H49.0547V19.5469H51.3047V24.8594ZM61.6172 26.3984C61.8932 26.3984 62.138 26.3464 62.3516 26.2422C62.5651 26.1328 62.7318 25.9818 62.8516 25.7891C62.9766 25.5911 63.0417 25.3594 63.0469 25.0938H65.1641C65.1589 25.6875 65 26.2161 64.6875 26.6797C64.375 27.138 63.9557 27.5 63.4297 27.7656C62.9036 28.026 62.3151 28.1562 61.6641 28.1562C61.0078 28.1562 60.4349 28.0469 59.9453 27.8281C59.4609 27.6094 59.0573 27.3073 58.7344 26.9219C58.4115 26.5312 58.1693 26.0781 58.0078 25.5625C57.8464 25.0417 57.7656 24.4844 57.7656 23.8906V23.6641C57.7656 23.0651 57.8464 22.5078 58.0078 21.9922C58.1693 21.4714 58.4115 21.0182 58.7344 20.6328C59.0573 20.2422 59.4609 19.9375 59.9453 19.7188C60.4297 19.5 60.9974 19.3906 61.6484 19.3906C62.3411 19.3906 62.9479 19.5234 63.4688 19.7891C63.9948 20.0547 64.4062 20.4349 64.7031 20.9297C65.0052 21.4193 65.1589 22 65.1641 22.6719H63.0469C63.0417 22.3906 62.9818 22.1354 62.8672 21.9062C62.7578 21.6771 62.5964 21.4948 62.3828 21.3594C62.1745 21.2188 61.9167 21.1484 61.6094 21.1484C61.2812 21.1484 61.013 21.2188 60.8047 21.3594C60.5964 21.4948 60.4349 21.6823 60.3203 21.9219C60.2057 22.1562 60.125 22.4245 60.0781 22.7266C60.0365 23.0234 60.0156 23.3359 60.0156 23.6641V23.8906C60.0156 24.2188 60.0365 24.5339 60.0781 24.8359C60.1198 25.138 60.1979 25.4062 60.3125 25.6406C60.4323 25.875 60.5964 26.0599 60.8047 26.1953C61.013 26.3307 61.2839 26.3984 61.6172 26.3984ZM71.0312 26.0938V22.3281C71.0312 22.0573 70.987 21.8255 70.8984 21.6328C70.8099 21.4349 70.6719 21.2812 70.4844 21.1719C70.3021 21.0625 70.0651 21.0078 69.7734 21.0078C69.5234 21.0078 69.3073 21.0521 69.125 21.1406C68.9427 21.224 68.8021 21.3464 68.7031 21.5078C68.6042 21.6641 68.5547 21.849 68.5547 22.0625H66.3047C66.3047 21.7031 66.388 21.362 66.5547 21.0391C66.7214 20.7161 66.9635 20.4323 67.2812 20.1875C67.599 19.9375 67.9766 19.7422 68.4141 19.6016C68.8568 19.4609 69.3516 19.3906 69.8984 19.3906C70.5547 19.3906 71.138 19.5 71.6484 19.7188C72.1589 19.9375 72.5599 20.2656 72.8516 20.7031C73.1484 21.1406 73.2969 21.6875 73.2969 22.3438V25.9609C73.2969 26.4245 73.3255 26.8047 73.3828 27.1016C73.4401 27.3932 73.5234 27.6484 73.6328 27.8672V28H71.3594C71.25 27.7708 71.1667 27.4844 71.1094 27.1406C71.0573 26.7917 71.0312 26.4427 71.0312 26.0938ZM71.3281 22.8516L71.3438 24.125H70.0859C69.7891 24.125 69.5312 24.1589 69.3125 24.2266C69.0938 24.2943 68.9141 24.3906 68.7734 24.5156C68.6328 24.6354 68.5286 24.776 68.4609 24.9375C68.3984 25.099 68.3672 25.276 68.3672 25.4688C68.3672 25.6615 68.4115 25.8359 68.5 25.9922C68.5885 26.1432 68.7161 26.263 68.8828 26.3516C69.0495 26.4349 69.2448 26.4766 69.4688 26.4766C69.8073 26.4766 70.1016 26.4089 70.3516 26.2734C70.6016 26.138 70.7943 25.9714 70.9297 25.7734C71.0703 25.5755 71.1432 25.388 71.1484 25.2109L71.7422 26.1641C71.6589 26.3776 71.5443 26.599 71.3984 26.8281C71.2578 27.0573 71.0781 27.2734 70.8594 27.4766C70.6406 27.6745 70.3776 27.8385 70.0703 27.9688C69.763 28.0938 69.3984 28.1562 68.9766 28.1562C68.4401 28.1562 67.9531 28.0495 67.5156 27.8359C67.0833 27.6172 66.7396 27.3177 66.4844 26.9375C66.2344 26.5521 66.1094 26.1146 66.1094 25.625C66.1094 25.1823 66.1927 24.7891 66.3594 24.4453C66.526 24.1016 66.7708 23.8125 67.0938 23.5781C67.4219 23.3385 67.8307 23.1589 68.3203 23.0391C68.8099 22.9141 69.3776 22.8516 70.0234 22.8516H71.3281ZM79.2109 19.5469V28H76.9531V19.5469H79.2109ZM81.9297 19.5469V21.2891H74.2734V19.5469H81.9297ZM84.6328 22.0547H87.0859C87.8568 22.0547 88.513 22.1823 89.0547 22.4375C89.6016 22.6875 90.0182 23.0365 90.3047 23.4844C90.5964 23.9323 90.7422 24.4505 90.7422 25.0391C90.7422 25.4661 90.6589 25.862 90.4922 26.2266C90.3307 26.5859 90.0938 26.8984 89.7812 27.1641C89.4688 27.4297 89.0859 27.6354 88.6328 27.7812C88.1797 27.9271 87.6641 28 87.0859 28H83.2266V19.5469H85.4844V26.25H87.0859C87.4245 26.25 87.6953 26.1953 87.8984 26.0859C88.1068 25.9714 88.2578 25.8229 88.3516 25.6406C88.4505 25.4583 88.5 25.2604 88.5 25.0469C88.5 24.8229 88.4505 24.6198 88.3516 24.4375C88.2578 24.25 88.1068 24.099 87.8984 23.9844C87.6953 23.8698 87.4245 23.8125 87.0859 23.8125H84.6328V22.0547ZM100.211 24.4688H97.5625L97.5469 22.9922H99.7344C100.026 22.9922 100.263 22.9635 100.445 22.9062C100.628 22.8438 100.76 22.7526 100.844 22.6328C100.932 22.5078 100.977 22.3568 100.977 22.1797C100.977 22.0234 100.948 21.8906 100.891 21.7812C100.839 21.6667 100.758 21.5729 100.648 21.5C100.539 21.4271 100.401 21.375 100.234 21.3438C100.073 21.3073 99.8828 21.2891 99.6641 21.2891H98.3984V28H96.1484V19.5469H99.6641C100.216 19.5469 100.711 19.5964 101.148 19.6953C101.586 19.7891 101.958 19.9323 102.266 20.125C102.578 20.3177 102.815 20.5625 102.977 20.8594C103.143 21.151 103.227 21.4974 103.227 21.8984C103.227 22.1589 103.167 22.4036 103.047 22.6328C102.932 22.862 102.76 23.0651 102.531 23.2422C102.302 23.4193 102.018 23.5651 101.68 23.6797C101.346 23.7891 100.961 23.8568 100.523 23.8828L100.211 24.4688ZM100.211 28H97.0078L97.7812 26.2578H100.211C100.487 26.2578 100.714 26.224 100.891 26.1562C101.068 26.0885 101.198 25.9896 101.281 25.8594C101.37 25.724 101.414 25.5625 101.414 25.375C101.414 25.1927 101.375 25.0339 101.297 24.8984C101.219 24.763 101.091 24.6589 100.914 24.5859C100.742 24.5078 100.508 24.4688 100.211 24.4688H98.1094L98.125 22.9922H100.516L101.062 23.5859C101.656 23.6224 102.146 23.7344 102.531 23.9219C102.917 24.1094 103.201 24.349 103.383 24.6406C103.57 24.9271 103.664 25.2422 103.664 25.5859C103.664 25.987 103.589 26.3385 103.438 26.6406C103.286 26.9427 103.062 27.1953 102.766 27.3984C102.474 27.5964 102.115 27.7474 101.688 27.8516C101.26 27.9505 100.768 28 100.211 28ZM111.914 26.1953L114.18 16.625H115.445L115.734 18.2188L113.32 28H111.961L111.914 26.1953ZM110.75 16.625L112.625 26.1953L112.469 28H110.953L108.43 16.625H110.75ZM117.727 26.1562L119.578 16.625H121.898L119.383 28H117.867L117.727 26.1562ZM116.156 16.625L118.438 26.2344L118.375 28H117.016L114.586 18.2109L114.898 16.625H116.156ZM125.227 16V28H122.977V16H125.227ZM124.906 23.4766H124.289C124.294 22.888 124.372 22.3464 124.523 21.8516C124.674 21.3516 124.891 20.9193 125.172 20.5547C125.453 20.1849 125.789 19.8984 126.18 19.6953C126.576 19.4922 127.013 19.3906 127.492 19.3906C127.909 19.3906 128.286 19.4505 128.625 19.5703C128.969 19.6849 129.263 19.8724 129.508 20.1328C129.758 20.388 129.951 20.724 130.086 21.1406C130.221 21.5573 130.289 22.0625 130.289 22.6562V28H128.023V22.6406C128.023 22.2656 127.969 21.9714 127.859 21.7578C127.755 21.5391 127.602 21.3854 127.398 21.2969C127.201 21.2031 126.956 21.1562 126.664 21.1562C126.341 21.1562 126.065 21.2161 125.836 21.3359C125.612 21.4557 125.432 21.6224 125.297 21.8359C125.161 22.0443 125.062 22.2891 125 22.5703C124.938 22.8516 124.906 23.1536 124.906 23.4766ZM136.562 26.0938V22.3281C136.562 22.0573 136.518 21.8255 136.43 21.6328C136.341 21.4349 136.203 21.2812 136.016 21.1719C135.833 21.0625 135.596 21.0078 135.305 21.0078C135.055 21.0078 134.839 21.0521 134.656 21.1406C134.474 21.224 134.333 21.3464 134.234 21.5078C134.135 21.6641 134.086 21.849 134.086 22.0625H131.836C131.836 21.7031 131.919 21.362 132.086 21.0391C132.253 20.7161 132.495 20.4323 132.812 20.1875C133.13 19.9375 133.508 19.7422 133.945 19.6016C134.388 19.4609 134.883 19.3906 135.43 19.3906C136.086 19.3906 136.669 19.5 137.18 19.7188C137.69 19.9375 138.091 20.2656 138.383 20.7031C138.68 21.1406 138.828 21.6875 138.828 22.3438V25.9609C138.828 26.4245 138.857 26.8047 138.914 27.1016C138.971 27.3932 139.055 27.6484 139.164 27.8672V28H136.891C136.781 27.7708 136.698 27.4844 136.641 27.1406C136.589 26.7917 136.562 26.4427 136.562 26.0938ZM136.859 22.8516L136.875 24.125H135.617C135.32 24.125 135.062 24.1589 134.844 24.2266C134.625 24.2943 134.445 24.3906 134.305 24.5156C134.164 24.6354 134.06 24.776 133.992 24.9375C133.93 25.099 133.898 25.276 133.898 25.4688C133.898 25.6615 133.943 25.8359 134.031 25.9922C134.12 26.1432 134.247 26.263 134.414 26.3516C134.581 26.4349 134.776 26.4766 135 26.4766C135.339 26.4766 135.633 26.4089 135.883 26.2734C136.133 26.138 136.326 25.9714 136.461 25.7734C136.602 25.5755 136.674 25.388 136.68 25.2109L137.273 26.1641C137.19 26.3776 137.076 26.599 136.93 26.8281C136.789 27.0573 136.609 27.2734 136.391 27.4766C136.172 27.6745 135.909 27.8385 135.602 27.9688C135.294 28.0938 134.93 28.1562 134.508 28.1562C133.971 28.1562 133.484 28.0495 133.047 27.8359C132.615 27.6172 132.271 27.3177 132.016 26.9375C131.766 26.5521 131.641 26.1146 131.641 25.625C131.641 25.1823 131.724 24.7891 131.891 24.4453C132.057 24.1016 132.302 23.8125 132.625 23.5781C132.953 23.3385 133.362 23.1589 133.852 23.0391C134.341 22.9141 134.909 22.8516 135.555 22.8516H136.859ZM144.703 19.5469V21.1406H139.781V19.5469H144.703ZM141 17.4609H143.25V25.4531C143.25 25.6979 143.281 25.8854 143.344 26.0156C143.411 26.1458 143.51 26.237 143.641 26.2891C143.771 26.3359 143.935 26.3594 144.133 26.3594C144.273 26.3594 144.398 26.3542 144.508 26.3438C144.622 26.3281 144.719 26.3125 144.797 26.2969L144.805 27.9531C144.612 28.0156 144.404 28.0651 144.18 28.1016C143.956 28.138 143.708 28.1562 143.438 28.1562C142.943 28.1562 142.51 28.0755 142.141 27.9141C141.776 27.7474 141.495 27.4818 141.297 27.1172C141.099 26.7526 141 26.2734 141 25.6797V17.4609ZM150.555 25.6641C150.555 25.5026 150.508 25.3568 150.414 25.2266C150.32 25.0964 150.146 24.9766 149.891 24.8672C149.641 24.7526 149.279 24.6484 148.805 24.5547C148.378 24.4609 147.979 24.3438 147.609 24.2031C147.245 24.0573 146.927 23.8828 146.656 23.6797C146.391 23.4766 146.182 23.237 146.031 22.9609C145.88 22.6797 145.805 22.3594 145.805 22C145.805 21.6458 145.88 21.3125 146.031 21C146.188 20.6875 146.409 20.4115 146.695 20.1719C146.987 19.9271 147.341 19.737 147.758 19.6016C148.18 19.4609 148.654 19.3906 149.18 19.3906C149.914 19.3906 150.544 19.5078 151.07 19.7422C151.602 19.9766 152.008 20.2995 152.289 20.7109C152.576 21.1172 152.719 21.5807 152.719 22.1016H150.469C150.469 21.8828 150.422 21.6875 150.328 21.5156C150.24 21.3385 150.099 21.2005 149.906 21.1016C149.719 20.9974 149.474 20.9453 149.172 20.9453C148.922 20.9453 148.706 20.9896 148.523 21.0781C148.341 21.1615 148.201 21.276 148.102 21.4219C148.008 21.5625 147.961 21.7188 147.961 21.8906C147.961 22.0208 147.987 22.138 148.039 22.2422C148.096 22.3411 148.188 22.4323 148.312 22.5156C148.438 22.599 148.599 22.6771 148.797 22.75C149 22.8177 149.25 22.8802 149.547 22.9375C150.156 23.0625 150.701 23.2266 151.18 23.4297C151.659 23.6276 152.039 23.8984 152.32 24.2422C152.602 24.5807 152.742 25.026 152.742 25.5781C152.742 25.9531 152.659 26.2969 152.492 26.6094C152.326 26.9219 152.086 27.1953 151.773 27.4297C151.461 27.6589 151.086 27.8385 150.648 27.9688C150.216 28.0938 149.729 28.1562 149.188 28.1562C148.401 28.1562 147.734 28.0156 147.188 27.7344C146.646 27.4531 146.234 27.0964 145.953 26.6641C145.677 26.2266 145.539 25.7786 145.539 25.3203H147.672C147.682 25.6276 147.76 25.875 147.906 26.0625C148.057 26.25 148.247 26.3854 148.477 26.4688C148.711 26.5521 148.964 26.5938 149.234 26.5938C149.526 26.5938 149.768 26.5547 149.961 26.4766C150.154 26.3932 150.299 26.2839 150.398 26.1484C150.503 26.0078 150.555 25.8464 150.555 25.6641ZM158.969 18.5703L155.875 28H153.383L157.609 16.625H159.195L158.969 18.5703ZM161.539 28L158.438 18.5703L158.188 16.625H159.789L164.039 28H161.539ZM161.398 23.7656V25.6016H155.391V23.7656H161.398ZM166.953 21.1719V31.25H164.703V19.5469H166.789L166.953 21.1719ZM172.305 23.6797V23.8438C172.305 24.4583 172.232 25.0286 172.086 25.5547C171.945 26.0807 171.737 26.5391 171.461 26.9297C171.185 27.3151 170.841 27.6172 170.43 27.8359C170.023 28.0495 169.555 28.1562 169.023 28.1562C168.508 28.1562 168.06 28.0521 167.68 27.8438C167.299 27.6354 166.979 27.3438 166.719 26.9688C166.464 26.5885 166.258 26.1484 166.102 25.6484C165.945 25.1484 165.826 24.612 165.742 24.0391V23.6094C165.826 22.9948 165.945 22.4323 166.102 21.9219C166.258 21.4062 166.464 20.9609 166.719 20.5859C166.979 20.2057 167.297 19.9115 167.672 19.7031C168.052 19.4948 168.497 19.3906 169.008 19.3906C169.544 19.3906 170.016 19.4922 170.422 19.6953C170.833 19.8984 171.177 20.1901 171.453 20.5703C171.734 20.9505 171.945 21.4036 172.086 21.9297C172.232 22.4557 172.305 23.0391 172.305 23.6797ZM170.047 23.8438V23.6797C170.047 23.3203 170.016 22.9896 169.953 22.6875C169.896 22.3802 169.802 22.112 169.672 21.8828C169.547 21.6536 169.38 21.4766 169.172 21.3516C168.969 21.2214 168.721 21.1562 168.43 21.1562C168.122 21.1562 167.859 21.2057 167.641 21.3047C167.427 21.4036 167.253 21.5469 167.117 21.7344C166.982 21.9219 166.88 22.1458 166.812 22.4062C166.745 22.6667 166.703 22.9609 166.688 23.2891V24.375C166.714 24.7604 166.786 25.1068 166.906 25.4141C167.026 25.7161 167.211 25.9557 167.461 26.1328C167.711 26.3099 168.039 26.3984 168.445 26.3984C168.742 26.3984 168.992 26.3333 169.195 26.2031C169.398 26.0677 169.562 25.8828 169.688 25.6484C169.818 25.4141 169.909 25.1432 169.961 24.8359C170.018 24.5286 170.047 24.1979 170.047 23.8438ZM175.953 21.1719V31.25H173.703V19.5469H175.789L175.953 21.1719ZM181.305 23.6797V23.8438C181.305 24.4583 181.232 25.0286 181.086 25.5547C180.945 26.0807 180.737 26.5391 180.461 26.9297C180.185 27.3151 179.841 27.6172 179.43 27.8359C179.023 28.0495 178.555 28.1562 178.023 28.1562C177.508 28.1562 177.06 28.0521 176.68 27.8438C176.299 27.6354 175.979 27.3438 175.719 26.9688C175.464 26.5885 175.258 26.1484 175.102 25.6484C174.945 25.1484 174.826 24.612 174.742 24.0391V23.6094C174.826 22.9948 174.945 22.4323 175.102 21.9219C175.258 21.4062 175.464 20.9609 175.719 20.5859C175.979 20.2057 176.297 19.9115 176.672 19.7031C177.052 19.4948 177.497 19.3906 178.008 19.3906C178.544 19.3906 179.016 19.4922 179.422 19.6953C179.833 19.8984 180.177 20.1901 180.453 20.5703C180.734 20.9505 180.945 21.4036 181.086 21.9297C181.232 22.4557 181.305 23.0391 181.305 23.6797ZM179.047 23.8438V23.6797C179.047 23.3203 179.016 22.9896 178.953 22.6875C178.896 22.3802 178.802 22.112 178.672 21.8828C178.547 21.6536 178.38 21.4766 178.172 21.3516C177.969 21.2214 177.721 21.1562 177.43 21.1562C177.122 21.1562 176.859 21.2057 176.641 21.3047C176.427 21.4036 176.253 21.5469 176.117 21.7344C175.982 21.9219 175.88 22.1458 175.812 22.4062C175.745 22.6667 175.703 22.9609 175.688 23.2891V24.375C175.714 24.7604 175.786 25.1068 175.906 25.4141C176.026 25.7161 176.211 25.9557 176.461 26.1328C176.711 26.3099 177.039 26.3984 177.445 26.3984C177.742 26.3984 177.992 26.3333 178.195 26.2031C178.398 26.0677 178.562 25.8828 178.688 25.6484C178.818 25.4141 178.909 25.1432 178.961 24.8359C179.018 24.5286 179.047 24.1979 179.047 23.8438Z" fill="white"/>
<path d="M202.839 13.4291C202.452 12.5457 202.045 12.5278 201.676 12.5123C201.375 12.499 201.03 12.5 200.686 12.5C200.342 12.5 199.782 12.6331 199.309 13.1637C198.835 13.6948 197.5 14.9782 197.5 17.5886C197.5 20.1989 199.352 22.7218 199.61 23.0761C199.868 23.4298 203.184 28.958 208.436 31.0847C212.8 32.8521 213.689 32.5006 214.636 32.412C215.583 32.3237 217.693 31.1289 218.123 29.8899C218.554 28.6511 218.554 27.5893 218.425 27.3674C218.296 27.1463 217.951 27.0135 217.434 26.7483C216.918 26.4831 214.377 25.1993 213.904 25.0223C213.43 24.8453 213.086 24.757 212.741 25.2883C212.397 25.8187 211.407 27.0135 211.105 27.3674C210.804 27.7221 210.503 27.7662 209.986 27.5008C209.469 27.2346 207.805 26.675 205.831 24.8677C204.295 23.4613 203.258 21.7246 202.957 21.1933C202.655 20.6629 202.924 20.3753 203.183 20.111C203.416 19.8732 203.7 19.4914 203.959 19.1817C204.216 18.8718 204.302 18.6508 204.475 18.2969C204.647 17.9428 204.561 17.6329 204.432 17.3675C204.302 17.1021 203.298 14.4781 202.839 13.4291Z" fill="white"/>
</svg>
