<svg width="240" height="45" viewBox="0 0 240 45" fill="none" xmlns="http://www.w3.org/2000/svg">
<rect width="240" height="45" rx="10" fill="#2AABEE"/>
<path d="M29.6641 22.9609V24.7109H25.3672V22.9609H29.6641ZM26.1172 19.5469V28H23.8672V19.5469H26.1172ZM31.1875 19.5469V28H28.9297V19.5469H31.1875ZM37.5 26.0938V22.3281C37.5 22.0573 37.4557 21.8255 37.3672 21.6328C37.2786 21.4349 37.1406 21.2812 36.9531 21.1719C36.7708 21.0625 36.5339 21.0078 36.2422 21.0078C35.9922 21.0078 35.776 21.0521 35.5938 21.1406C35.4115 21.224 35.2708 21.3464 35.1719 21.5078C35.0729 21.6641 35.0234 21.849 35.0234 22.0625H32.7734C32.7734 21.7031 32.8568 21.362 33.0234 21.0391C33.1901 20.7161 33.4323 20.4323 33.75 20.1875C34.0677 19.9375 34.4453 19.7422 34.8828 19.6016C35.3255 19.4609 35.8203 19.3906 36.3672 19.3906C37.0234 19.3906 37.6068 19.5 38.1172 19.7188C38.6276 19.9375 39.0286 20.2656 39.3203 20.7031C39.6172 21.1406 39.7656 21.6875 39.7656 22.3438V25.9609C39.7656 26.4245 39.7943 26.8047 39.8516 27.1016C39.9089 27.3932 39.9922 27.6484 40.1016 27.8672V28H37.8281C37.7188 27.7708 37.6354 27.4844 37.5781 27.1406C37.526 26.7917 37.5 26.4427 37.5 26.0938ZM37.7969 22.8516L37.8125 24.125H36.5547C36.2578 24.125 36 24.1589 35.7812 24.2266C35.5625 24.2943 35.3828 24.3906 35.2422 24.5156C35.1016 24.6354 34.9974 24.776 34.9297 24.9375C34.8672 25.099 34.8359 25.276 34.8359 25.4688C34.8359 25.6615 34.8802 25.8359 34.9688 25.9922C35.0573 26.1432 35.1849 26.263 35.3516 26.3516C35.5182 26.4349 35.7135 26.4766 35.9375 26.4766C36.276 26.4766 36.5703 26.4089 36.8203 26.2734C37.0703 26.138 37.263 25.9714 37.3984 25.7734C37.5391 25.5755 37.612 25.388 37.6172 25.2109L38.2109 26.1641C38.1276 26.3776 38.013 26.599 37.8672 26.8281C37.7266 27.0573 37.5469 27.2734 37.3281 27.4766C37.1094 27.6745 36.8464 27.8385 36.5391 27.9688C36.2318 28.0938 35.8672 28.1562 35.4453 28.1562C34.9089 28.1562 34.4219 28.0495 33.9844 27.8359C33.5521 27.6172 33.2083 27.3177 32.9531 26.9375C32.7031 26.5521 32.5781 26.1146 32.5781 25.625C32.5781 25.1823 32.6615 24.7891 32.8281 24.4453C32.9948 24.1016 33.2396 23.8125 33.5625 23.5781C33.8906 23.3385 34.2995 23.1589 34.7891 23.0391C35.2786 22.9141 35.8464 22.8516 36.4922 22.8516H37.7969ZM47.1875 19.5469V21.3125H43.0938V19.5469H47.1875ZM43.7422 19.5469V28H41.4922V19.5469H43.7422ZM48.8281 19.5469V28H46.5703V19.5469H48.8281ZM52.8047 24.8594L55.6406 19.5469H57.8906V28H55.6406V22.6797L52.8047 28H50.5547V19.5469H52.8047V24.8594ZM63.1172 26.3984C63.3932 26.3984 63.638 26.3464 63.8516 26.2422C64.0651 26.1328 64.2318 25.9818 64.3516 25.7891C64.4766 25.5911 64.5417 25.3594 64.5469 25.0938H66.6641C66.6589 25.6875 66.5 26.2161 66.1875 26.6797C65.875 27.138 65.4557 27.5 64.9297 27.7656C64.4036 28.026 63.8151 28.1562 63.1641 28.1562C62.5078 28.1562 61.9349 28.0469 61.4453 27.8281C60.9609 27.6094 60.5573 27.3073 60.2344 26.9219C59.9115 26.5312 59.6693 26.0781 59.5078 25.5625C59.3464 25.0417 59.2656 24.4844 59.2656 23.8906V23.6641C59.2656 23.0651 59.3464 22.5078 59.5078 21.9922C59.6693 21.4714 59.9115 21.0182 60.2344 20.6328C60.5573 20.2422 60.9609 19.9375 61.4453 19.7188C61.9297 19.5 62.4974 19.3906 63.1484 19.3906C63.8411 19.3906 64.4479 19.5234 64.9688 19.7891C65.4948 20.0547 65.9062 20.4349 66.2031 20.9297C66.5052 21.4193 66.6589 22 66.6641 22.6719H64.5469C64.5417 22.3906 64.4818 22.1354 64.3672 21.9062C64.2578 21.6771 64.0964 21.4948 63.8828 21.3594C63.6745 21.2188 63.4167 21.1484 63.1094 21.1484C62.7812 21.1484 62.513 21.2188 62.3047 21.3594C62.0964 21.4948 61.9349 21.6823 61.8203 21.9219C61.7057 22.1562 61.625 22.4245 61.5781 22.7266C61.5365 23.0234 61.5156 23.3359 61.5156 23.6641V23.8906C61.5156 24.2188 61.5365 24.5339 61.5781 24.8359C61.6198 25.138 61.6979 25.4062 61.8125 25.6406C61.9323 25.875 62.0964 26.0599 62.3047 26.1953C62.513 26.3307 62.7839 26.3984 63.1172 26.3984ZM72.5312 26.0938V22.3281C72.5312 22.0573 72.487 21.8255 72.3984 21.6328C72.3099 21.4349 72.1719 21.2812 71.9844 21.1719C71.8021 21.0625 71.5651 21.0078 71.2734 21.0078C71.0234 21.0078 70.8073 21.0521 70.625 21.1406C70.4427 21.224 70.3021 21.3464 70.2031 21.5078C70.1042 21.6641 70.0547 21.849 70.0547 22.0625H67.8047C67.8047 21.7031 67.888 21.362 68.0547 21.0391C68.2214 20.7161 68.4635 20.4323 68.7812 20.1875C69.099 19.9375 69.4766 19.7422 69.9141 19.6016C70.3568 19.4609 70.8516 19.3906 71.3984 19.3906C72.0547 19.3906 72.638 19.5 73.1484 19.7188C73.6589 19.9375 74.0599 20.2656 74.3516 20.7031C74.6484 21.1406 74.7969 21.6875 74.7969 22.3438V25.9609C74.7969 26.4245 74.8255 26.8047 74.8828 27.1016C74.9401 27.3932 75.0234 27.6484 75.1328 27.8672V28H72.8594C72.75 27.7708 72.6667 27.4844 72.6094 27.1406C72.5573 26.7917 72.5312 26.4427 72.5312 26.0938ZM72.8281 22.8516L72.8438 24.125H71.5859C71.2891 24.125 71.0312 24.1589 70.8125 24.2266C70.5938 24.2943 70.4141 24.3906 70.2734 24.5156C70.1328 24.6354 70.0286 24.776 69.9609 24.9375C69.8984 25.099 69.8672 25.276 69.8672 25.4688C69.8672 25.6615 69.9115 25.8359 70 25.9922C70.0885 26.1432 70.2161 26.263 70.3828 26.3516C70.5495 26.4349 70.7448 26.4766 70.9688 26.4766C71.3073 26.4766 71.6016 26.4089 71.8516 26.2734C72.1016 26.138 72.2943 25.9714 72.4297 25.7734C72.5703 25.5755 72.6432 25.388 72.6484 25.2109L73.2422 26.1641C73.1589 26.3776 73.0443 26.599 72.8984 26.8281C72.7578 27.0573 72.5781 27.2734 72.3594 27.4766C72.1406 27.6745 71.8776 27.8385 71.5703 27.9688C71.263 28.0938 70.8984 28.1562 70.4766 28.1562C69.9401 28.1562 69.4531 28.0495 69.0156 27.8359C68.5833 27.6172 68.2396 27.3177 67.9844 26.9375C67.7344 26.5521 67.6094 26.1146 67.6094 25.625C67.6094 25.1823 67.6927 24.7891 67.8594 24.4453C68.026 24.1016 68.2708 23.8125 68.5938 23.5781C68.9219 23.3385 69.3307 23.1589 69.8203 23.0391C70.3099 22.9141 70.8776 22.8516 71.5234 22.8516H72.8281ZM80.7109 19.5469V28H78.4531V19.5469H80.7109ZM83.4297 19.5469V21.2891H75.7734V19.5469H83.4297ZM86.1328 22.0547H88.5859C89.3568 22.0547 90.013 22.1823 90.5547 22.4375C91.1016 22.6875 91.5182 23.0365 91.8047 23.4844C92.0964 23.9323 92.2422 24.4505 92.2422 25.0391C92.2422 25.4661 92.1589 25.862 91.9922 26.2266C91.8307 26.5859 91.5938 26.8984 91.2812 27.1641C90.9688 27.4297 90.5859 27.6354 90.1328 27.7812C89.6797 27.9271 89.1641 28 88.5859 28H84.7266V19.5469H86.9844V26.25H88.5859C88.9245 26.25 89.1953 26.1953 89.3984 26.0859C89.6068 25.9714 89.7578 25.8229 89.8516 25.6406C89.9505 25.4583 90 25.2604 90 25.0469C90 24.8229 89.9505 24.6198 89.8516 24.4375C89.7578 24.25 89.6068 24.099 89.3984 23.9844C89.1953 23.8698 88.9245 23.8125 88.5859 23.8125H86.1328V22.0547ZM101.711 24.4688H99.0625L99.0469 22.9922H101.234C101.526 22.9922 101.763 22.9635 101.945 22.9062C102.128 22.8438 102.26 22.7526 102.344 22.6328C102.432 22.5078 102.477 22.3568 102.477 22.1797C102.477 22.0234 102.448 21.8906 102.391 21.7812C102.339 21.6667 102.258 21.5729 102.148 21.5C102.039 21.4271 101.901 21.375 101.734 21.3438C101.573 21.3073 101.383 21.2891 101.164 21.2891H99.8984V28H97.6484V19.5469H101.164C101.716 19.5469 102.211 19.5964 102.648 19.6953C103.086 19.7891 103.458 19.9323 103.766 20.125C104.078 20.3177 104.315 20.5625 104.477 20.8594C104.643 21.151 104.727 21.4974 104.727 21.8984C104.727 22.1589 104.667 22.4036 104.547 22.6328C104.432 22.862 104.26 23.0651 104.031 23.2422C103.802 23.4193 103.518 23.5651 103.18 23.6797C102.846 23.7891 102.461 23.8568 102.023 23.8828L101.711 24.4688ZM101.711 28H98.5078L99.2812 26.2578H101.711C101.987 26.2578 102.214 26.224 102.391 26.1562C102.568 26.0885 102.698 25.9896 102.781 25.8594C102.87 25.724 102.914 25.5625 102.914 25.375C102.914 25.1927 102.875 25.0339 102.797 24.8984C102.719 24.763 102.591 24.6589 102.414 24.5859C102.242 24.5078 102.008 24.4688 101.711 24.4688H99.6094L99.625 22.9922H102.016L102.562 23.5859C103.156 23.6224 103.646 23.7344 104.031 23.9219C104.417 24.1094 104.701 24.349 104.883 24.6406C105.07 24.9271 105.164 25.2422 105.164 25.5859C105.164 25.987 105.089 26.3385 104.938 26.6406C104.786 26.9427 104.562 27.1953 104.266 27.3984C103.974 27.5964 103.615 27.7474 103.188 27.8516C102.76 27.9505 102.268 28 101.711 28ZM115.758 16.625V28H113.422V16.625H115.758ZM119.258 16.625V18.4609H109.977V16.625H119.258ZM123.609 28.1562C122.953 28.1562 122.365 28.0521 121.844 27.8438C121.323 27.6302 120.88 27.3359 120.516 26.9609C120.156 26.5859 119.88 26.151 119.688 25.6562C119.495 25.1562 119.398 24.625 119.398 24.0625V23.75C119.398 23.1094 119.49 22.5234 119.672 21.9922C119.854 21.4609 120.115 21 120.453 20.6094C120.797 20.2188 121.214 19.9193 121.703 19.7109C122.193 19.4974 122.745 19.3906 123.359 19.3906C123.958 19.3906 124.49 19.4896 124.953 19.6875C125.417 19.8854 125.805 20.1667 126.117 20.5312C126.435 20.8958 126.674 21.3333 126.836 21.8438C126.997 22.349 127.078 22.9115 127.078 23.5312V24.4688H120.359V22.9688H124.867V22.7969C124.867 22.4844 124.81 22.2057 124.695 21.9609C124.586 21.7109 124.419 21.513 124.195 21.3672C123.971 21.2214 123.685 21.1484 123.336 21.1484C123.039 21.1484 122.784 21.2135 122.57 21.3438C122.357 21.474 122.182 21.6562 122.047 21.8906C121.917 22.125 121.818 22.401 121.75 22.7188C121.688 23.0312 121.656 23.375 121.656 23.75V24.0625C121.656 24.401 121.703 24.7135 121.797 25C121.896 25.2865 122.034 25.5339 122.211 25.7422C122.393 25.9505 122.612 26.112 122.867 26.2266C123.128 26.3411 123.422 26.3984 123.75 26.3984C124.156 26.3984 124.534 26.3203 124.883 26.1641C125.237 26.0026 125.542 25.7604 125.797 25.4375L126.891 26.625C126.714 26.8802 126.471 27.125 126.164 27.3594C125.862 27.5938 125.497 27.7865 125.07 27.9375C124.643 28.0833 124.156 28.1562 123.609 28.1562ZM130.734 16V28H128.477V16H130.734ZM136.484 28.1562C135.828 28.1562 135.24 28.0521 134.719 27.8438C134.198 27.6302 133.755 27.3359 133.391 26.9609C133.031 26.5859 132.755 26.151 132.562 25.6562C132.37 25.1562 132.273 24.625 132.273 24.0625V23.75C132.273 23.1094 132.365 22.5234 132.547 21.9922C132.729 21.4609 132.99 21 133.328 20.6094C133.672 20.2188 134.089 19.9193 134.578 19.7109C135.068 19.4974 135.62 19.3906 136.234 19.3906C136.833 19.3906 137.365 19.4896 137.828 19.6875C138.292 19.8854 138.68 20.1667 138.992 20.5312C139.31 20.8958 139.549 21.3333 139.711 21.8438C139.872 22.349 139.953 22.9115 139.953 23.5312V24.4688H133.234V22.9688H137.742V22.7969C137.742 22.4844 137.685 22.2057 137.57 21.9609C137.461 21.7109 137.294 21.513 137.07 21.3672C136.846 21.2214 136.56 21.1484 136.211 21.1484C135.914 21.1484 135.659 21.2135 135.445 21.3438C135.232 21.474 135.057 21.6562 134.922 21.8906C134.792 22.125 134.693 22.401 134.625 22.7188C134.562 23.0312 134.531 23.375 134.531 23.75V24.0625C134.531 24.401 134.578 24.7135 134.672 25C134.771 25.2865 134.909 25.5339 135.086 25.7422C135.268 25.9505 135.487 26.112 135.742 26.2266C136.003 26.3411 136.297 26.3984 136.625 26.3984C137.031 26.3984 137.409 26.3203 137.758 26.1641C138.112 26.0026 138.417 25.7604 138.672 25.4375L139.766 26.625C139.589 26.8802 139.346 27.125 139.039 27.3594C138.737 27.5938 138.372 27.7865 137.945 27.9375C137.518 28.0833 137.031 28.1562 136.484 28.1562ZM146.586 19.5469H148.625V27.7188C148.625 28.4896 148.453 29.1432 148.109 29.6797C147.771 30.2214 147.297 30.6302 146.688 30.9062C146.078 31.1875 145.37 31.3281 144.562 31.3281C144.208 31.3281 143.833 31.2812 143.438 31.1875C143.047 31.0938 142.672 30.9479 142.312 30.75C141.958 30.5521 141.661 30.3021 141.422 30L142.414 28.6719C142.674 28.974 142.977 29.2083 143.32 29.375C143.664 29.5469 144.044 29.6328 144.461 29.6328C144.867 29.6328 145.211 29.5573 145.492 29.4062C145.773 29.2604 145.99 29.0443 146.141 28.7578C146.292 28.4766 146.367 28.1354 146.367 27.7344V21.5L146.586 19.5469ZM140.898 23.875V23.7109C140.898 23.0651 140.977 22.4792 141.133 21.9531C141.294 21.4219 141.521 20.9661 141.812 20.5859C142.109 20.2057 142.469 19.9115 142.891 19.7031C143.312 19.4948 143.789 19.3906 144.32 19.3906C144.883 19.3906 145.354 19.4948 145.734 19.7031C146.115 19.9115 146.427 20.2083 146.672 20.5938C146.917 20.974 147.107 21.4245 147.242 21.9453C147.383 22.4609 147.492 23.026 147.57 23.6406V24C147.492 24.5885 147.375 25.1354 147.219 25.6406C147.062 26.1458 146.857 26.5885 146.602 26.9688C146.346 27.3438 146.029 27.6354 145.648 27.8438C145.273 28.0521 144.826 28.1562 144.305 28.1562C143.784 28.1562 143.312 28.0495 142.891 27.8359C142.474 27.6224 142.117 27.3229 141.82 26.9375C141.523 26.5521 141.294 26.099 141.133 25.5781C140.977 25.0573 140.898 24.4896 140.898 23.875ZM143.148 23.7109V23.875C143.148 24.224 143.182 24.5495 143.25 24.8516C143.318 25.1536 143.422 25.4219 143.562 25.6562C143.708 25.8854 143.888 26.0651 144.102 26.1953C144.32 26.3203 144.578 26.3828 144.875 26.3828C145.286 26.3828 145.622 26.2969 145.883 26.125C146.143 25.9479 146.339 25.7057 146.469 25.3984C146.599 25.0911 146.674 24.737 146.695 24.3359V23.3125C146.685 22.9844 146.641 22.6901 146.562 22.4297C146.484 22.1641 146.375 21.9375 146.234 21.75C146.094 21.5625 145.911 21.4167 145.688 21.3125C145.464 21.2083 145.198 21.1562 144.891 21.1562C144.594 21.1562 144.336 21.224 144.117 21.3594C143.904 21.4896 143.724 21.6693 143.578 21.8984C143.438 22.1276 143.331 22.3984 143.258 22.7109C143.185 23.0182 143.148 23.3516 143.148 23.7109ZM152.625 21.3906V28H150.375V19.5469H152.492L152.625 21.3906ZM155.172 19.4922L155.133 21.5781C155.023 21.5625 154.891 21.5495 154.734 21.5391C154.583 21.5234 154.445 21.5156 154.32 21.5156C154.003 21.5156 153.727 21.5573 153.492 21.6406C153.263 21.7188 153.07 21.8359 152.914 21.9922C152.763 22.1484 152.648 22.3385 152.57 22.5625C152.497 22.7865 152.456 23.0417 152.445 23.3281L151.992 23.1875C151.992 22.6406 152.047 22.138 152.156 21.6797C152.266 21.2161 152.424 20.8125 152.633 20.4688C152.846 20.125 153.107 19.8594 153.414 19.6719C153.721 19.4844 154.073 19.3906 154.469 19.3906C154.594 19.3906 154.721 19.401 154.852 19.4219C154.982 19.4375 155.089 19.4609 155.172 19.4922ZM160.531 26.0938V22.3281C160.531 22.0573 160.487 21.8255 160.398 21.6328C160.31 21.4349 160.172 21.2812 159.984 21.1719C159.802 21.0625 159.565 21.0078 159.273 21.0078C159.023 21.0078 158.807 21.0521 158.625 21.1406C158.443 21.224 158.302 21.3464 158.203 21.5078C158.104 21.6641 158.055 21.849 158.055 22.0625H155.805C155.805 21.7031 155.888 21.362 156.055 21.0391C156.221 20.7161 156.464 20.4323 156.781 20.1875C157.099 19.9375 157.477 19.7422 157.914 19.6016C158.357 19.4609 158.852 19.3906 159.398 19.3906C160.055 19.3906 160.638 19.5 161.148 19.7188C161.659 19.9375 162.06 20.2656 162.352 20.7031C162.648 21.1406 162.797 21.6875 162.797 22.3438V25.9609C162.797 26.4245 162.826 26.8047 162.883 27.1016C162.94 27.3932 163.023 27.6484 163.133 27.8672V28H160.859C160.75 27.7708 160.667 27.4844 160.609 27.1406C160.557 26.7917 160.531 26.4427 160.531 26.0938ZM160.828 22.8516L160.844 24.125H159.586C159.289 24.125 159.031 24.1589 158.812 24.2266C158.594 24.2943 158.414 24.3906 158.273 24.5156C158.133 24.6354 158.029 24.776 157.961 24.9375C157.898 25.099 157.867 25.276 157.867 25.4688C157.867 25.6615 157.911 25.8359 158 25.9922C158.089 26.1432 158.216 26.263 158.383 26.3516C158.549 26.4349 158.745 26.4766 158.969 26.4766C159.307 26.4766 159.602 26.4089 159.852 26.2734C160.102 26.138 160.294 25.9714 160.43 25.7734C160.57 25.5755 160.643 25.388 160.648 25.2109L161.242 26.1641C161.159 26.3776 161.044 26.599 160.898 26.8281C160.758 27.0573 160.578 27.2734 160.359 27.4766C160.141 27.6745 159.878 27.8385 159.57 27.9688C159.263 28.0938 158.898 28.1562 158.477 28.1562C157.94 28.1562 157.453 28.0495 157.016 27.8359C156.583 27.6172 156.24 27.3177 155.984 26.9375C155.734 26.5521 155.609 26.1146 155.609 25.625C155.609 25.1823 155.693 24.7891 155.859 24.4453C156.026 24.1016 156.271 23.8125 156.594 23.5781C156.922 23.3385 157.331 23.1589 157.82 23.0391C158.31 22.9141 158.878 22.8516 159.523 22.8516H160.828ZM166.781 21.2969V28H164.523V19.5469H166.641L166.781 21.2969ZM166.469 23.4766H165.844C165.844 22.888 165.914 22.3464 166.055 21.8516C166.201 21.3516 166.411 20.9193 166.688 20.5547C166.969 20.1849 167.315 19.8984 167.727 19.6953C168.138 19.4922 168.615 19.3906 169.156 19.3906C169.531 19.3906 169.875 19.4479 170.188 19.5625C170.5 19.6719 170.768 19.8464 170.992 20.0859C171.221 20.3203 171.398 20.6276 171.523 21.0078C171.648 21.3828 171.711 21.8333 171.711 22.3594V28H169.461V22.6094C169.461 22.224 169.409 21.9271 169.305 21.7188C169.201 21.5104 169.052 21.3646 168.859 21.2812C168.672 21.1979 168.445 21.1562 168.18 21.1562C167.888 21.1562 167.633 21.2161 167.414 21.3359C167.201 21.4557 167.023 21.6224 166.883 21.8359C166.742 22.0443 166.638 22.2891 166.57 22.5703C166.503 22.8516 166.469 23.1536 166.469 23.4766ZM171.5 23.2188L170.695 23.3203C170.695 22.7682 170.763 22.2552 170.898 21.7812C171.039 21.3073 171.245 20.8906 171.516 20.5312C171.792 20.1719 172.133 19.8932 172.539 19.6953C172.945 19.4922 173.414 19.3906 173.945 19.3906C174.352 19.3906 174.721 19.4505 175.055 19.5703C175.388 19.6849 175.672 19.8698 175.906 20.125C176.146 20.375 176.328 20.7031 176.453 21.1094C176.583 21.5156 176.648 22.013 176.648 22.6016V28H174.391V22.6016C174.391 22.2109 174.339 21.9141 174.234 21.7109C174.135 21.5026 173.99 21.3594 173.797 21.2812C173.609 21.1979 173.385 21.1562 173.125 21.1562C172.854 21.1562 172.617 21.2109 172.414 21.3203C172.211 21.4245 172.042 21.5703 171.906 21.7578C171.771 21.9453 171.669 22.1641 171.602 22.4141C171.534 22.6589 171.5 22.9271 171.5 23.2188Z" fill="white"/>
<path d="M194.65 21.11C201.093 18.2878 205.389 16.4271 207.537 15.5281C213.677 12.9611 214.951 12.5152 215.783 12.5001C215.966 12.4972 216.374 12.5427 216.64 12.7588C216.861 12.9411 216.923 13.1876 216.954 13.3607C216.981 13.5336 217.019 13.9277 216.988 14.2354C216.657 17.7492 215.217 26.2762 214.485 30.212C214.177 31.8772 213.566 32.4356 212.976 32.4901C211.691 32.6088 210.717 31.6373 209.474 30.8182C207.53 29.5359 206.432 28.738 204.543 27.487C202.361 26.0412 203.776 25.2464 205.02 23.9478C205.344 23.6079 211.001 18.436 211.108 17.9669C211.121 17.9083 211.135 17.6895 211.004 17.5742C210.876 17.4586 210.686 17.4982 210.548 17.5294C210.351 17.5739 207.247 19.6391 201.225 23.7249C200.344 24.3339 199.546 24.6308 198.828 24.6151C198.041 24.5981 196.521 24.1665 195.392 23.7978C194.011 23.3454 192.909 23.1061 193.006 22.3377C193.054 21.9377 193.603 21.5284 194.65 21.11Z" fill="white"/>
</svg>
