<svg width="210" height="40" viewBox="0 0 210 40" fill="none" xmlns="http://www.w3.org/2000/svg">
    <path d="M203.204 8.64868H210L197.766 39.9417H191.138L194.714 30.6679L184.512 8.64868H191.478L197.936 22.3109L203.204 8.64868Z" fill="#E72541"/>
    <path d="M173.87 31.213C171.629 31.213 169.206 30.5713 167.742 28.9246V40H161.432V8.64873H167.742V10.3421C169.206 8.69373 171.629 8.05371 173.87 8.05371C180.913 8.05371 185.12 13.6839 185.12 19.6325C185.12 25.5811 180.913 31.2113 173.87 31.2113V31.213ZM173.321 13.8673C170.531 13.8673 167.467 15.789 167.467 19.6342C167.467 23.4793 170.531 25.4011 173.321 25.4011C176.568 25.4011 178.808 22.701 178.808 19.6342C178.808 16.5674 176.567 13.8673 173.321 13.8673Z" fill="#E72541"/>
    <path d="M158.311 25.8644C158.311 28.5145 156.166 30.6612 153.518 30.6612H143.932C141.285 30.6612 139.14 28.5128 139.14 25.8644C139.14 23.2159 141.285 21.0675 143.932 21.0675H153.518C156.166 21.0675 158.311 23.2159 158.311 25.8644Z" fill="#E72541"/>
    <path d="M143.636 13.1661C143.636 10.4037 145.872 8.16589 148.632 8.16589C151.392 8.16589 153.628 10.4054 153.628 13.1661C153.628 15.9268 151.392 18.1663 148.632 18.1663C145.872 18.1663 143.636 15.9268 143.636 13.1661Z" fill="#E72541"/>
    <path d="M113.455 8.64868H119.765V21.9209L129.689 8.64868H135.999V30.6179H129.689V17.3457L119.765 30.6179H113.455V8.64868Z" fill="#E72541"/>
    <path d="M90.773 0H97.083V8.65036H98.9115C105.68 8.65036 110.664 13.3189 110.664 19.6341C110.664 26.4078 105.999 30.6179 98.9565 30.6179H97.0813V39.955H90.7713V30.6179H88.8962C81.8084 30.6179 77.2354 26.4078 77.2354 19.6341C77.2354 13.3189 82.1748 8.65036 88.9877 8.65036H90.7713V0H90.773ZM88.8062 14.1423C85.4672 14.1423 83.5471 16.339 83.5471 19.6341C83.5471 22.9293 85.3307 25.126 88.8512 25.126H90.7713V14.1423H88.8046H88.8062ZM97.0847 14.1423V25.126H99.0514C102.572 25.126 104.356 22.7909 104.356 19.6341C104.356 16.4774 102.389 14.1423 99.0514 14.1423H97.0847Z" fill="#E72541"/>
    <path d="M75.5917 19.6792C75.5917 26.4995 70.1494 31.213 63.6096 31.213C57.0698 31.213 51.5825 26.3611 51.5825 19.6792C51.5825 12.9972 56.9332 8.05371 63.5629 8.05371C70.1927 8.05371 75.5901 12.9056 75.5901 19.6792H75.5917ZM59.5395 15.424C58.3504 16.6141 57.8925 18.0325 57.8925 19.6809C57.8925 23.0677 60.3155 25.4011 63.6079 25.4011C66.9003 25.4011 69.2784 22.9293 69.2784 19.6809C69.2784 18.8108 69.1419 18.0325 68.8671 17.3008C68.2276 15.8357 67.2667 14.9657 65.8495 14.2806C65.1184 14.0056 64.3856 13.869 63.6079 13.869C61.9609 13.869 60.7718 14.3723 59.5378 15.4257L59.5395 15.424Z" fill="#E72541"/>
    <path d="M38.6876 31.213C36.4461 31.213 34.023 30.5713 32.5591 28.9246V40H26.2491V8.64873H32.5591V10.3421C34.023 8.69373 36.4461 8.05371 38.6876 8.05371C45.7303 8.05371 49.937 13.6839 49.937 19.6325C49.937 25.5811 45.7303 31.2113 38.6876 31.2113V31.213ZM38.138 13.8673C35.3486 13.8673 32.2844 15.789 32.2844 19.6342C32.2844 23.4793 35.3486 25.4011 38.138 25.4011C41.3855 25.4011 43.6254 22.701 43.6254 19.6342C43.6254 16.5674 41.3838 13.8673 38.138 13.8673Z" fill="#E72541"/>
    <path d="M22.2257 8.64868V30.6179H15.9157V14.1406H6.31166V30.6179H0V8.64868H22.2257Z" fill="#E72541"/>
</svg>
