<?xml version="1.0" encoding="UTF-8"?>
<svg xmlns="http://www.w3.org/2000/svg" version="1.1" viewBox="0 0 106 21">
  <defs>
    <style>
      .cls-1 {
        fill: #fff;
      }
    </style>
  </defs>
  <!-- Generator: Adobe Illustrator 28.6.0, SVG Export Plug-In . SVG Version: 1.2.0 Build 709)  -->
  <g>
    <g id="Layer_1">
      <path class="cls-1" d="M102.5,5h3.5l-6.2,16h-3.4l1.8-4.7-5.2-11.3h3.6l3.3,7,2.7-7Z"/>
      <path class="cls-1" d="M87.3,15.6c-1.1,0-2.4-.3-3.1-1.1v5.5h-3.2V4.3h3.2v.8c.7-.8,2-1.1,3.1-1.1,3.6,0,5.7,2.8,5.7,5.8s-2.1,5.8-5.7,5.8h0ZM87,6.9c-1.4,0-3,1-3,2.9s1.6,2.9,3,2.9,2.8-1.4,2.8-2.9-1.1-2.9-2.8-2.9Z"/>
      <path class="cls-1" d="M80,13.5c0,1.4-1.1,2.5-2.5,2.5h-5c-1.4,0-2.5-1.1-2.5-2.5s1.1-2.5,2.5-2.5h5c1.4,0,2.5,1.1,2.5,2.5Z"/>
      <path class="cls-1" d="M73,6.5c0-1.4,1.1-2.5,2.5-2.5s2.5,1.1,2.5,2.5-1.1,2.5-2.5,2.5-2.5-1.1-2.5-2.5Z"/>
      <path class="cls-1" d="M57,5h3.1v6.6l4.8-6.6h3.1v11h-3.1v-6.6l-4.8,6.6h-3.1V5Z"/>
      <path class="cls-1" d="M45.9,0h3.2v4.3h.9c3.4,0,6,2.3,6,5.5s-2.4,5.5-6,5.5h-1v4.7h-3.2v-4.7h-1c-3.6,0-5.9-2.1-5.9-5.5s2.5-5.5,6-5.5h.9V0h0ZM44.9,7.1c-1.7,0-2.7,1.1-2.7,2.7s.9,2.7,2.7,2.7h1v-5.5h-1,0ZM49.1,7.1v5.5h1c1.8,0,2.7-1.2,2.7-2.7s-1-2.7-2.7-2.7h-1Z"/>
      <path class="cls-1" d="M38,10c0,3.5-2.7,6-6,6s-6-2.5-6-6,2.7-6,6-6,6,2.5,6,6h0ZM30,7.8c-.6.6-.8,1.4-.8,2.2,0,1.8,1.2,3,2.9,3s2.8-1.3,2.8-3,0-.9-.2-1.2c-.3-.8-.8-1.2-1.5-1.6-.4-.1-.7-.2-1.1-.2-.8,0-1.4.3-2,.8h0Z"/>
      <path class="cls-1" d="M19.3,15.6c-1.1,0-2.4-.3-3.1-1.1v5.5h-3.2V4.3h3.2v.8c.7-.8,2-1.1,3.1-1.1,3.6,0,5.7,2.8,5.7,5.8s-2.1,5.8-5.7,5.8h0ZM19,6.9c-1.4,0-3,1-3,2.9s1.6,2.9,3,2.9,2.8-1.4,2.8-2.9-1.1-2.9-2.8-2.9Z"/>
      <path class="cls-1" d="M11,5v11h-3.1V7.7H3.1v8.3H0V5h11Z"/>
    </g>
  </g>
</svg>