<?xml version="1.0" encoding="UTF-8"?>
<svg xmlns="http://www.w3.org/2000/svg" version="1.1" viewBox="0 0 47 36">
  <defs>
    <style>
      .cls-1 {
        fill: #0028b8;
        fill-rule: evenodd;
      }
    </style>
  </defs>
  <!-- Generator: Adobe Illustrator 28.6.0, SVG Export Plug-In . SVG Version: 1.2.0 Build 709)  -->
  <g>
    <g id="Layer_1">
      <path class="cls-1" d="M0,18S8.8.5,23.5.5s23.5,17.5,23.5,17.5c0,0-8.8,17.5-23.5,17.5S0,18,0,18ZM5.3,18.4l-.2-.4.2-.4c1-1.5,2.4-3.5,4.2-5.4,3.7-4,8.5-7.3,14-7.3s10.3,3.3,14,7.3c1.6,1.8,3.1,3.7,4.4,5.8-1.3,2.1-2.8,4-4.4,5.8-3.7,4-8.5,7.3-14,7.3s-10.3-3.3-14-7.3c-1.5-1.7-2.9-3.5-4.2-5.4ZM32.3,18c0,1.8-.6,3.6-1.7,5.1-1.1,1.5-2.6,2.6-4.4,3.2-1.8.6-3.7.6-5.4,0-1.8-.6-3.3-1.7-4.4-3.1-1.1-1.5-1.7-3.3-1.7-5.1,0-1.8.6-3.6,1.6-5.1,1.1-1.5,2.6-2.6,4.4-3.2,1.8-.6,3.7-.6,5.4,0-.6.3-1.2.7-1.7,1.3-.4.6-.7,1.2-.9,1.9-.1.7,0,1.4.1,2.1.2.7.6,1.3,1.1,1.8.5.5,1.1.9,1.8,1.1.7.2,1.4.3,2.1.1.7-.1,1.4-.4,1.9-.9.6-.4,1-1,1.3-1.6.3.8.4,1.7.4,2.6Z"/>
    </g>
  </g>
</svg>